<mxfile host="app.diagrams.net" modified="2023-07-30T15:45:31.892Z" agent="Mozilla/5.0 (Macintosh; Intel Mac OS X 10_15_7) AppleWebKit/537.36 (KHTML, like Gecko) Chrome/115.0.0.0 Safari/537.36" etag="68WhcXOojKyn0JEHOhly" version="21.6.6" type="github">
  <diagram name="Page-1" id="54c02804-9d69-ba3f-8aca-1021b27b8050">
    <mxGraphModel dx="2893" dy="2656" grid="1" gridSize="10" guides="1" tooltips="1" connect="1" arrows="1" fold="1" page="1" pageScale="1" pageWidth="1100" pageHeight="850" background="none" math="0" shadow="0">
      <root>
        <mxCell id="0" />
        <mxCell id="1" parent="0" />
        <mxCell id="7c3a617817c5cf35-7" value="secondary market trading" style="verticalLabelPosition=bottom;verticalAlign=top;html=1;shape=mxgraph.infographic.shadedCube;isoAngle=15;fontFamily=Helvetica;fontSize=20;align=center;strokeWidth=2;aspect=fixed;" parent="1" vertex="1">
          <mxGeometry x="169.5" y="-138.32999999999998" width="70" height="81.67" as="geometry" />
        </mxCell>
        <mxCell id="qRGsfc20uHWPQH7qOcsc-11" style="edgeStyle=orthogonalEdgeStyle;rounded=0;orthogonalLoop=1;jettySize=auto;html=1;" edge="1" parent="1" source="qRGsfc20uHWPQH7qOcsc-2" target="qRGsfc20uHWPQH7qOcsc-3">
          <mxGeometry relative="1" as="geometry" />
        </mxCell>
        <mxCell id="qRGsfc20uHWPQH7qOcsc-2" value="investors" style="verticalLabelPosition=bottom;sketch=0;html=1;fillColor=#282828;strokeColor=none;verticalAlign=top;pointerEvents=1;align=center;shape=mxgraph.cisco_safe.people_places_things_icons.icon9;" vertex="1" parent="1">
          <mxGeometry x="495" y="-745" width="50" height="45" as="geometry" />
        </mxCell>
        <mxCell id="qRGsfc20uHWPQH7qOcsc-12" style="edgeStyle=orthogonalEdgeStyle;rounded=0;orthogonalLoop=1;jettySize=auto;html=1;" edge="1" parent="1" source="qRGsfc20uHWPQH7qOcsc-3" target="qRGsfc20uHWPQH7qOcsc-4">
          <mxGeometry relative="1" as="geometry" />
        </mxCell>
        <mxCell id="qRGsfc20uHWPQH7qOcsc-13" style="edgeStyle=orthogonalEdgeStyle;rounded=0;orthogonalLoop=1;jettySize=auto;html=1;" edge="1" parent="1" source="qRGsfc20uHWPQH7qOcsc-3" target="qRGsfc20uHWPQH7qOcsc-6">
          <mxGeometry relative="1" as="geometry">
            <Array as="points">
              <mxPoint x="520" y="-530" />
              <mxPoint x="590" y="-530" />
            </Array>
          </mxGeometry>
        </mxCell>
        <mxCell id="qRGsfc20uHWPQH7qOcsc-25" style="edgeStyle=orthogonalEdgeStyle;rounded=0;orthogonalLoop=1;jettySize=auto;html=1;" edge="1" parent="1" source="qRGsfc20uHWPQH7qOcsc-3" target="qRGsfc20uHWPQH7qOcsc-23">
          <mxGeometry relative="1" as="geometry" />
        </mxCell>
        <mxCell id="qRGsfc20uHWPQH7qOcsc-28" value="registered to" style="edgeLabel;html=1;align=center;verticalAlign=middle;resizable=0;points=[];" vertex="1" connectable="0" parent="qRGsfc20uHWPQH7qOcsc-25">
          <mxGeometry x="0.3276" y="1" relative="1" as="geometry">
            <mxPoint as="offset" />
          </mxGeometry>
        </mxCell>
        <mxCell id="qRGsfc20uHWPQH7qOcsc-26" style="edgeStyle=orthogonalEdgeStyle;rounded=0;orthogonalLoop=1;jettySize=auto;html=1;" edge="1" parent="1" source="qRGsfc20uHWPQH7qOcsc-3" target="qRGsfc20uHWPQH7qOcsc-24">
          <mxGeometry relative="1" as="geometry" />
        </mxCell>
        <mxCell id="qRGsfc20uHWPQH7qOcsc-27" value="registered to" style="edgeLabel;html=1;align=center;verticalAlign=middle;resizable=0;points=[];" vertex="1" connectable="0" parent="qRGsfc20uHWPQH7qOcsc-26">
          <mxGeometry x="0.4282" y="-1" relative="1" as="geometry">
            <mxPoint as="offset" />
          </mxGeometry>
        </mxCell>
        <mxCell id="qRGsfc20uHWPQH7qOcsc-33" style="edgeStyle=orthogonalEdgeStyle;rounded=0;orthogonalLoop=1;jettySize=auto;html=1;entryX=-0.003;entryY=0.577;entryDx=0;entryDy=0;entryPerimeter=0;" edge="1" parent="1" source="qRGsfc20uHWPQH7qOcsc-3" target="qRGsfc20uHWPQH7qOcsc-32">
          <mxGeometry relative="1" as="geometry" />
        </mxCell>
        <mxCell id="qRGsfc20uHWPQH7qOcsc-34" value="member of" style="edgeLabel;html=1;align=center;verticalAlign=middle;resizable=0;points=[];" vertex="1" connectable="0" parent="qRGsfc20uHWPQH7qOcsc-33">
          <mxGeometry x="0.5734" y="-1" relative="1" as="geometry">
            <mxPoint as="offset" />
          </mxGeometry>
        </mxCell>
        <mxCell id="qRGsfc20uHWPQH7qOcsc-35" style="edgeStyle=orthogonalEdgeStyle;rounded=0;orthogonalLoop=1;jettySize=auto;html=1;entryX=1;entryY=0.5;entryDx=0;entryDy=0;" edge="1" parent="1" source="qRGsfc20uHWPQH7qOcsc-3" target="qRGsfc20uHWPQH7qOcsc-29">
          <mxGeometry relative="1" as="geometry" />
        </mxCell>
        <mxCell id="qRGsfc20uHWPQH7qOcsc-36" value="has signed" style="edgeLabel;html=1;align=center;verticalAlign=middle;resizable=0;points=[];" vertex="1" connectable="0" parent="qRGsfc20uHWPQH7qOcsc-35">
          <mxGeometry x="0.4072" y="2" relative="1" as="geometry">
            <mxPoint as="offset" />
          </mxGeometry>
        </mxCell>
        <mxCell id="qRGsfc20uHWPQH7qOcsc-37" style="edgeStyle=orthogonalEdgeStyle;rounded=0;orthogonalLoop=1;jettySize=auto;html=1;entryX=1;entryY=0.5;entryDx=0;entryDy=0;" edge="1" parent="1" source="qRGsfc20uHWPQH7qOcsc-3" target="qRGsfc20uHWPQH7qOcsc-30">
          <mxGeometry relative="1" as="geometry" />
        </mxCell>
        <mxCell id="qRGsfc20uHWPQH7qOcsc-38" value="has signed" style="edgeLabel;html=1;align=center;verticalAlign=middle;resizable=0;points=[];" vertex="1" connectable="0" parent="qRGsfc20uHWPQH7qOcsc-37">
          <mxGeometry x="0.5708" y="-1" relative="1" as="geometry">
            <mxPoint as="offset" />
          </mxGeometry>
        </mxCell>
        <mxCell id="qRGsfc20uHWPQH7qOcsc-3" value="investment fund " style="sketch=0;outlineConnect=0;fontColor=#232F3E;gradientColor=none;fillColor=#232F3D;strokeColor=none;dashed=0;verticalLabelPosition=bottom;verticalAlign=top;align=center;html=1;fontSize=12;fontStyle=0;aspect=fixed;pointerEvents=1;shape=mxgraph.aws4.office_building;" vertex="1" parent="1">
          <mxGeometry x="495" y="-640" width="50" height="78" as="geometry" />
        </mxCell>
        <mxCell id="qRGsfc20uHWPQH7qOcsc-14" style="edgeStyle=orthogonalEdgeStyle;rounded=0;orthogonalLoop=1;jettySize=auto;html=1;" edge="1" parent="1" source="qRGsfc20uHWPQH7qOcsc-4" target="qRGsfc20uHWPQH7qOcsc-7">
          <mxGeometry relative="1" as="geometry" />
        </mxCell>
        <mxCell id="qRGsfc20uHWPQH7qOcsc-4" value="portfolio manager" style="image;html=1;image=img/lib/clip_art/people/Scientist_Man_128x128.png" vertex="1" parent="1">
          <mxGeometry x="435" y="-490" width="70" height="70" as="geometry" />
        </mxCell>
        <mxCell id="qRGsfc20uHWPQH7qOcsc-15" style="edgeStyle=orthogonalEdgeStyle;rounded=0;orthogonalLoop=1;jettySize=auto;html=1;" edge="1" parent="1" source="qRGsfc20uHWPQH7qOcsc-6" target="qRGsfc20uHWPQH7qOcsc-7">
          <mxGeometry relative="1" as="geometry" />
        </mxCell>
        <mxCell id="qRGsfc20uHWPQH7qOcsc-6" value="analyst" style="image;html=1;image=img/lib/clip_art/people/Tech_Man_Black_128x128.png" vertex="1" parent="1">
          <mxGeometry x="550" y="-490" width="70" height="70" as="geometry" />
        </mxCell>
        <mxCell id="qRGsfc20uHWPQH7qOcsc-7" value="financial asset" style="shape=image;html=1;verticalAlign=top;verticalLabelPosition=bottom;labelBackgroundColor=#ffffff;imageAspect=0;aspect=fixed;image=https://cdn0.iconfinder.com/data/icons/business-startup-10/50/25-128.png" vertex="1" parent="1">
          <mxGeometry x="489" y="-290" width="80" height="80" as="geometry" />
        </mxCell>
        <mxCell id="qRGsfc20uHWPQH7qOcsc-16" style="rounded=0;orthogonalLoop=1;jettySize=auto;html=1;dashed=1;endArrow=none;endFill=0;" edge="1" parent="1" source="qRGsfc20uHWPQH7qOcsc-10" target="qRGsfc20uHWPQH7qOcsc-3">
          <mxGeometry relative="1" as="geometry" />
        </mxCell>
        <mxCell id="qRGsfc20uHWPQH7qOcsc-10" value="define investment strategy, risk profile, and objectives of the fund" style="rounded=0;whiteSpace=wrap;html=1;" vertex="1" parent="1">
          <mxGeometry x="210" y="-810" width="120" height="60" as="geometry" />
        </mxCell>
        <mxCell id="qRGsfc20uHWPQH7qOcsc-18" style="rounded=0;orthogonalLoop=1;jettySize=auto;html=1;endArrow=none;dashed=1;endFill=0;strokeColor=default;" edge="1" parent="1" source="qRGsfc20uHWPQH7qOcsc-17" target="qRGsfc20uHWPQH7qOcsc-3">
          <mxGeometry relative="1" as="geometry">
            <mxPoint x="380" y="-520" as="targetPoint" />
          </mxGeometry>
        </mxCell>
        <mxCell id="qRGsfc20uHWPQH7qOcsc-17" value="there are different types of investment funds, such as mutual funds, exchange-traded funds (ETFs), hedge funds, index funds, etc." style="rounded=0;whiteSpace=wrap;html=1;" vertex="1" parent="1">
          <mxGeometry x="30" y="-820" width="156" height="80" as="geometry" />
        </mxCell>
        <mxCell id="qRGsfc20uHWPQH7qOcsc-19" value="stocks, bonds, real estate, commodities, or other securities" style="rounded=0;whiteSpace=wrap;html=1;" vertex="1" parent="1">
          <mxGeometry x="710" y="-200" width="120" height="60" as="geometry" />
        </mxCell>
        <mxCell id="qRGsfc20uHWPQH7qOcsc-20" style="rounded=0;orthogonalLoop=1;jettySize=auto;html=1;endArrow=none;dashed=1;endFill=0;strokeColor=default;entryX=0;entryY=0.5;entryDx=0;entryDy=0;exitX=0.975;exitY=0.925;exitDx=0;exitDy=0;exitPerimeter=0;" edge="1" parent="1" source="qRGsfc20uHWPQH7qOcsc-7" target="qRGsfc20uHWPQH7qOcsc-19">
          <mxGeometry relative="1" as="geometry">
            <mxPoint x="580" y="-252.5" as="sourcePoint" />
            <mxPoint x="759" y="-227.5" as="targetPoint" />
          </mxGeometry>
        </mxCell>
        <mxCell id="qRGsfc20uHWPQH7qOcsc-22" style="rounded=0;orthogonalLoop=1;jettySize=auto;html=1;strokeColor=default;dashed=1;endArrow=none;endFill=0;" edge="1" parent="1" source="qRGsfc20uHWPQH7qOcsc-21" target="qRGsfc20uHWPQH7qOcsc-3">
          <mxGeometry relative="1" as="geometry">
            <mxPoint x="500" y="-630" as="targetPoint" />
          </mxGeometry>
        </mxCell>
        <mxCell id="qRGsfc20uHWPQH7qOcsc-21" value="charge fees to cover operational costs, management fees, and sometimes performance-based fees (known as performance fees). These fees are deducted from the fund&#39;s assets, and the net returns are passed on to the investors" style="rounded=0;whiteSpace=wrap;html=1;" vertex="1" parent="1">
          <mxGeometry x="210" y="-900" width="290" height="70" as="geometry" />
        </mxCell>
        <mxCell id="qRGsfc20uHWPQH7qOcsc-23" value="AMF" style="sketch=0;outlineConnect=0;fontColor=#232F3E;gradientColor=none;fillColor=#232F3D;strokeColor=none;dashed=0;verticalLabelPosition=bottom;verticalAlign=top;align=center;html=1;fontSize=12;fontStyle=0;aspect=fixed;pointerEvents=1;shape=mxgraph.aws4.office_building;" vertex="1" parent="1">
          <mxGeometry x="874" y="-680" width="50" height="78" as="geometry" />
        </mxCell>
        <mxCell id="qRGsfc20uHWPQH7qOcsc-24" value="SEC" style="sketch=0;outlineConnect=0;fontColor=#232F3E;gradientColor=none;fillColor=#232F3D;strokeColor=none;dashed=0;verticalLabelPosition=bottom;verticalAlign=top;align=center;html=1;fontSize=12;fontStyle=0;aspect=fixed;pointerEvents=1;shape=mxgraph.aws4.office_building;" vertex="1" parent="1">
          <mxGeometry x="874" y="-570" width="50" height="78" as="geometry" />
        </mxCell>
        <mxCell id="qRGsfc20uHWPQH7qOcsc-29" value="CFA Asset Manager Code" style="image;aspect=fixed;perimeter=ellipsePerimeter;html=1;align=center;shadow=0;dashed=0;spacingTop=3;image=img/lib/active_directory/documents.svg;" vertex="1" parent="1">
          <mxGeometry x="136.5" y="-562" width="33" height="50" as="geometry" />
        </mxCell>
        <mxCell id="qRGsfc20uHWPQH7qOcsc-30" value="SBAI" style="image;aspect=fixed;perimeter=ellipsePerimeter;html=1;align=center;shadow=0;dashed=0;spacingTop=3;image=img/lib/active_directory/documents.svg;" vertex="1" parent="1">
          <mxGeometry x="136.5" y="-460" width="33" height="50" as="geometry" />
        </mxCell>
        <mxCell id="qRGsfc20uHWPQH7qOcsc-32" value="AIMA" style="sketch=0;outlineConnect=0;fontColor=#232F3E;gradientColor=none;fillColor=#232F3D;strokeColor=none;dashed=0;verticalLabelPosition=bottom;verticalAlign=top;align=center;html=1;fontSize=12;fontStyle=0;aspect=fixed;pointerEvents=1;shape=mxgraph.aws4.office_building;" vertex="1" parent="1">
          <mxGeometry x="874" y="-450" width="50" height="78" as="geometry" />
        </mxCell>
        <mxCell id="qRGsfc20uHWPQH7qOcsc-40" value="custodian bank" style="verticalLabelPosition=bottom;verticalAlign=top;html=1;shape=mxgraph.infographic.shadedCube;isoAngle=15;fontFamily=Helvetica;fontSize=20;align=center;strokeWidth=2;aspect=fixed;" vertex="1" parent="1">
          <mxGeometry x="380" y="-139.99999999999997" width="70" height="81.67" as="geometry" />
        </mxCell>
        <mxCell id="qRGsfc20uHWPQH7qOcsc-41" value="ESG" style="verticalLabelPosition=bottom;verticalAlign=top;html=1;shape=mxgraph.infographic.shadedCube;isoAngle=15;fontFamily=Helvetica;fontSize=20;align=center;strokeWidth=2;aspect=fixed;" vertex="1" parent="1">
          <mxGeometry x="540" y="-138.32999999999998" width="70" height="81.67" as="geometry" />
        </mxCell>
        <mxCell id="qRGsfc20uHWPQH7qOcsc-42" value="holds and safeguards the fund&#39;s assets (such as stocks, bonds, or other securities) on behalf of the investment fund." style="rounded=0;whiteSpace=wrap;html=1;" vertex="1" parent="1">
          <mxGeometry x="-60" y="-220" width="170" height="90" as="geometry" />
        </mxCell>
        <mxCell id="qRGsfc20uHWPQH7qOcsc-43" value="blackbox" style="verticalLabelPosition=bottom;verticalAlign=top;html=1;shape=mxgraph.infographic.shadedCube;isoAngle=15;fontFamily=Helvetica;fontSize=20;align=center;strokeWidth=2;aspect=fixed;" vertex="1" parent="1">
          <mxGeometry x="-370" y="-781.67" width="70" height="81.67" as="geometry" />
        </mxCell>
        <mxCell id="qRGsfc20uHWPQH7qOcsc-44" value="&lt;a href=&quot;https://chat.openai.com/share/f87e57c5-bdd0-4643-8247-2c12a64d08d5&quot;&gt;https://chat.openai.com/share/f87e57c5-bdd0-4643-8247-2c12a64d08d5&lt;/a&gt;" style="whiteSpace=wrap;html=1;" vertex="1" parent="1">
          <mxGeometry x="-340" y="-510" width="120" height="60" as="geometry" />
        </mxCell>
      </root>
    </mxGraphModel>
  </diagram>
</mxfile>
